<?xml version="1.0" encoding="utf-8"?>
<!-- Generator: Adobe Illustrator 16.0.0, SVG Export Plug-In . SVG Version: 6.00 Build 0)  -->
<!DOCTYPE svg PUBLIC "-//W3C//DTD SVG 1.1//EN" "http://www.w3.org/Graphics/SVG/1.1/DTD/svg11.dtd">
<svg version="1.1" id="Layer_1" xmlns="http://www.w3.org/2000/svg" xmlns:xlink="http://www.w3.org/1999/xlink" x="0px" y="0px"
	 width="800px" height="600px" viewBox="0 0 800 600" enable-background="new 0 0 800 600" xml:space="preserve">
<rect x="31" y="10" display="none" fill="#F7931E" width="761" height="576"/>
<g>
	<path fill="#EFEFEF" d="M436.193,36.262c3.701,0,15.701,2.053,27.63,4.522c12.655,2.709,25.193,5.882,27.641,7.265
		c0.15,0.089,0.274,0.178,0.359,0.259c0,0,0.003,0.001,0.007,0.004c3.367,3.741,3.371,5.648,2.221,6.932
		c-1.265,1.102-3.386,1.851-4.59,3.098c-1.203,1.123-1.558,2.718,0.652,5.723c0.037,0.05,0.063,0.096,0.104,0.146
		c1.472,1.959,2.312,3.472,2.704,4.683c1.544,4.757-3.901,4.828-6.066,8.532c-2.825,4.831-2.22,13.472-3.396,30.355
		c-0.033,0.482-0.068,0.973-0.106,1.468c-1.024,13.888-3.287,33.132-9.453,60.004c-0.22,0.96-0.423,1.898-0.615,2.814
		c-10.501,50.464,22.496,38.28,17.87,96.948c-0.085,1.067-0.18,2.158-0.29,3.27c-0.108,1.116-0.231,2.256-0.364,3.418
		c-0.819,6.982-2.114,14.864-4.001,23.821l-47.716,226.629c-0.45,2.135-0.926,4.095-1.437,5.892
		c-3.414,11.941-8.566,16.613-19.791,16.613c-5.106,0-11.471-0.967-19.498-2.657l-77.766-16.373
		c-28.33-5.966-34.059-11.811-29.264-34.585l47.716-226.628c20.116-95.54,52.186-52.242,64.056-114.132
		c11.873-61.89,26.341-79.088,25.175-89.254c-0.499-4.347-5.648-6.608-1.918-10.473c0.862-0.892,2.194-1.868,4.169-2.976
		c0.031-0.015,0.051-0.031,0.078-0.047c3.308-1.879,3.635-3.494,2.981-5.018c-0.6-1.626-2.239-3.166-2.951-4.683
		c-0.536-1.639,0.234-3.385,4.831-5.451c0-0.001,0-0.001,0-0.001c0.111-0.039,0.262-0.07,0.434-0.092
		C435.763,36.27,435.962,36.262,436.193,36.262 M436.193,12.262c-1.041,0-2.017,0.047-2.982,0.144l-0.362,0.036l-0.36,0.047
		c-1.825,0.239-3.6,0.658-5.272,1.245l-0.963,0.338l-0.931,0.418c-5.826,2.62-10.222,5.903-13.438,10.036
		c-3.725,4.787-5.674,10.584-5.681,16.455c-3.776,5.175-8.416,14.866-3.205,27.204c-0.655,1.793-1.477,3.92-2.204,5.804
		c-5.223,13.525-13.966,36.163-21.564,75.773c-1.707,8.9-3.931,15.313-6.609,19.062c-1.879,2.629-4.21,4.334-8.886,7.639
		c-7.261,5.131-17.205,12.159-26.419,26.391c-9.396,14.512-16.404,33.774-22.056,60.616l-47.716,226.628
		c-1.8,8.551-6.016,28.574,7.548,44.246c9.07,10.479,22.127,14.951,40.254,18.769l77.767,16.373
		c10.421,2.194,17.959,3.173,24.443,3.173c11.404,0,20.961-3.222,28.404-9.573c8.86-7.562,12.497-17.571,14.462-24.443
		c0.669-2.354,1.27-4.808,1.845-7.537l47.718-226.637c1.955-9.279,3.419-18.018,4.352-25.968l0.005-0.036l0.004-0.037
		c0.147-1.292,0.284-2.558,0.405-3.799c0.115-1.165,0.223-2.377,0.328-3.707c2.683-34.019-5.268-50.451-14.371-65.62
		c-2.802-4.668-4.296-7.244-4.983-10.261c-0.938-4.118-0.583-10.203,1.058-18.085c0.154-0.734,0.326-1.533,0.514-2.352
		c5.254-22.898,8.523-43.696,9.99-63.562c0.042-0.544,0.081-1.083,0.117-1.613c0.346-4.971,0.549-9.337,0.713-12.845
		c0.093-1.995,0.197-4.247,0.319-6.139c1.371-1.289,2.815-2.886,4.132-4.842c4.214-6.26,5.591-13.938,3.918-21.428
		c2.354-5.372,2.903-11.457,1.424-17.333c-1.276-5.073-3.972-9.844-8.24-14.586l-2.24-2.488l-2.093-1.314
		c-0.538-0.375-1.095-0.731-1.665-1.068l-0.198-0.118l-0.201-0.113c-2.283-1.29-7.034-3.975-34.423-9.838l-0.08-0.017l-0.08-0.017
		C457.623,14.992,443.005,12.262,436.193,12.262L436.193,12.262z"/>
</g>
<path fill="none" stroke="#EFEFEF" stroke-width="13" d="M338.744,268.414l-30.173,143.307l147.755,31.11l30.173-143.308
	c0.079-0.375,0.154-0.743,0.231-1.112l-147.749-31.109C338.904,267.673,338.824,268.038,338.744,268.414z"/>
<path fill="none" stroke="#EFEFEF" d="M290.882,514.466c18.819-0.353,29.088-13.329,74.197-3.832
	c45.383,9.556,48.797,25.595,65.987,33.424"/>
<line fill="none" stroke="#EFEFEF" stroke-width="8" x1="429.934" y1="40.245" x2="495.055" y2="53.956"/>
<line fill="none" stroke="#EFEFEF" stroke-width="8" x1="433.259" y1="47.682" x2="489.014" y2="59.421"/>
<line fill="none" stroke="#EFEFEF" stroke-width="8" x1="424.596" y1="55.804" x2="493.667" y2="70.347"/>
<text transform="matrix(0.9786 0.206 -0.206 0.9786 332.1699 318.6387)" fill="#EFEFEF" stroke="#EFEFEF" font-family="'MyriadPro-Regular'" font-size="85">s</text>
<text transform="matrix(0.9786 0.206 -0.206 0.9786 417.4863 422.6436)" fill="#EFEFEF" stroke="#EFEFEF" font-family="'MyriadPro-Regular'" font-size="85">s</text>
<text transform="matrix(0.9786 0.206 -0.206 0.9786 357.6772 373.9033)" fill="#EFEFEF" stroke="#EFEFEF" font-family="'MyriadPro-Regular'" font-size="69">‘n’</text>
</svg>
